<svg xmlns="http://www.w3.org/2000/svg" xmlns:xlink="http://www.w3.org/1999/xlink" version="1.1" width="256" height="256" viewBox="0 0 256 256" xml:space="preserve">

<defs>
</defs>
<g style="stroke: none; stroke-width: 0; stroke-dasharray: none; stroke-linecap: butt; stroke-linejoin: miter; stroke-miterlimit: 10; fill: none; fill-rule: nonzero; opacity: 1;" transform="translate(1.4065934065934016 1.4065934065934016) scale(2.81 2.81)" >
	<path d="M 2.555 46.262 c 0 0.416 0.142 0.768 0.425 1.06 c 0.286 0.292 0.635 0.437 1.042 0.437 c 0.41 0 0.759 -0.145 1.045 -0.437 c 0.283 -0.292 0.425 -0.644 0.425 -1.06 c 0 -0.413 -0.142 -0.768 -0.425 -1.06 c -0.286 -0.292 -0.635 -0.437 -1.045 -0.437 c -0.408 0 -0.756 0.145 -1.042 0.437 C 2.697 45.495 2.555 45.849 2.555 46.262 M 5.461 49.552 v -0.124 c -0.239 0.227 -0.505 0.399 -0.803 0.514 c -0.298 0.112 -0.626 0.171 -0.975 0.171 c -1.039 0 -1.914 -0.372 -2.622 -1.116 c -0.709 -0.741 -1.063 -1.654 -1.063 -2.735 s 0.354 -1.99 1.063 -2.735 c 0.709 -0.744 1.583 -1.113 2.622 -1.113 c 0.348 0 0.676 0.056 0.975 0.168 c 0.298 0.115 0.564 0.283 0.803 0.508 v -0.13 c 0 -0.1 0.033 -0.183 0.094 -0.248 c 0.065 -0.062 0.148 -0.094 0.245 -0.094 h 1.86 c 0.1 0 0.183 0.033 0.248 0.094 c 0.062 0.065 0.094 0.148 0.094 0.248 v 6.591 c 0 0.094 -0.033 0.177 -0.1 0.245 c -0.065 0.068 -0.142 0.103 -0.233 0.103 H 5.815 c -0.094 0 -0.177 -0.035 -0.248 -0.103 C 5.497 49.73 5.461 49.647 5.461 49.552" style="stroke: none; stroke-width: 1; stroke-dasharray: none; stroke-linecap: butt; stroke-linejoin: miter; stroke-miterlimit: 10; fill: rgb(25,48,63); fill-rule: nonzero; opacity: 1;" transform=" matrix(1 0 0 1 0 0) " stroke-linecap="round" />
	<path d="M 12.484 47.84 c 0.334 0 0.585 -0.095 0.756 -0.286 c 0.171 -0.192 0.257 -0.473 0.257 -0.842 v -3.795 c 0 -0.083 0.035 -0.154 0.109 -0.216 c 0.074 -0.062 0.157 -0.092 0.248 -0.092 h 1.837 c 0.092 0 0.174 0.029 0.248 0.092 c 0.071 0.062 0.109 0.133 0.109 0.216 v 4.137 c 0 0.889 -0.322 1.621 -0.966 2.194 c -0.641 0.576 -1.503 0.862 -2.584 0.862 c -1.09 0 -1.964 -0.289 -2.625 -0.868 c -0.662 -0.579 -0.992 -1.308 -0.992 -2.188 v -4.137 c 0 -0.083 0.035 -0.154 0.106 -0.216 c 0.071 -0.062 0.151 -0.092 0.242 -0.092 h 1.84 c 0.092 0 0.174 0.029 0.251 0.092 c 0.074 0.062 0.112 0.133 0.112 0.216 v 3.795 c 0 0.36 0.092 0.638 0.272 0.836 C 11.887 47.743 12.147 47.84 12.484 47.84" style="stroke: none; stroke-width: 1; stroke-dasharray: none; stroke-linecap: butt; stroke-linejoin: miter; stroke-miterlimit: 10; fill: rgb(25,48,63); fill-rule: nonzero; opacity: 1;" transform=" matrix(1 0 0 1 0 0) " stroke-linecap="round" />
	<path d="M 20.224 50.037 c -0.797 0 -1.432 -0.21 -1.911 -0.626 c -0.475 -0.419 -0.715 -0.995 -0.715 -1.734 v -2.962 h -0.75 c -0.092 0 -0.171 -0.032 -0.236 -0.103 c -0.065 -0.068 -0.1 -0.151 -0.1 -0.251 v -0.526 c 0 -0.157 0.015 -0.281 0.044 -0.378 c 0.03 -0.095 0.086 -0.186 0.162 -0.275 l 1.81 -2.008 c 0.157 -0.168 0.284 -0.281 0.387 -0.328 c 0.103 -0.05 0.236 -0.077 0.399 -0.077 h 0.487 c 0.094 0 0.177 0.032 0.242 0.1 c 0.068 0.065 0.1 0.145 0.1 0.242 v 1.497 h 1.601 c 0.095 0 0.177 0.032 0.245 0.1 c 0.068 0.065 0.103 0.145 0.103 0.242 v 1.409 c 0 0.1 -0.035 0.183 -0.103 0.251 c -0.068 0.071 -0.151 0.103 -0.245 0.103 h -1.601 v 2.427 c 0 0.177 0.047 0.319 0.142 0.419 c 0.097 0.103 0.227 0.156 0.39 0.156 c 0.097 0 0.198 -0.02 0.307 -0.059 c 0.112 -0.039 0.236 -0.1 0.378 -0.183 c 0.142 -0.08 0.26 -0.109 0.357 -0.086 c 0.1 0.02 0.192 0.095 0.278 0.219 l 0.644 0.963 c 0.071 0.109 0.106 0.219 0.1 0.328 c -0.003 0.109 -0.047 0.207 -0.127 0.286 c -0.26 0.266 -0.605 0.472 -1.031 0.623 C 21.157 49.961 20.705 50.037 20.224 50.037" style="stroke: none; stroke-width: 1; stroke-dasharray: none; stroke-linecap: butt; stroke-linejoin: miter; stroke-miterlimit: 10; fill: rgb(25,48,63); fill-rule: nonzero; opacity: 1;" transform=" matrix(1 0 0 1 0 0) " stroke-linecap="round" />
	<path d="M 26.966 44.613 c -0.346 0 -0.629 0.109 -0.853 0.325 c -0.224 0.219 -0.334 0.508 -0.334 0.874 v 3.739 c 0 0.1 -0.032 0.183 -0.097 0.248 c -0.062 0.062 -0.145 0.095 -0.245 0.095 h -1.86 c -0.1 0 -0.183 -0.032 -0.245 -0.095 c -0.065 -0.065 -0.097 -0.148 -0.097 -0.248 v -9.612 c 0 -0.1 0.032 -0.183 0.097 -0.248 c 0.062 -0.062 0.145 -0.095 0.245 -0.095 h 1.86 c 0.1 0 0.183 0.032 0.245 0.095 c 0.065 0.065 0.097 0.148 0.097 0.248 v 3.541 c 0.23 -0.351 0.526 -0.617 0.886 -0.8 c 0.357 -0.183 0.768 -0.275 1.231 -0.275 c 0.918 0 1.612 0.275 2.082 0.818 c 0.473 0.546 0.709 1.338 0.709 2.377 v 3.951 c 0 0.1 -0.032 0.183 -0.094 0.248 c -0.065 0.062 -0.148 0.095 -0.248 0.095 h -1.858 c -0.103 0 -0.183 -0.032 -0.248 -0.095 c -0.062 -0.065 -0.095 -0.148 -0.095 -0.248 v -3.739 c 0 -0.366 -0.109 -0.656 -0.328 -0.874 C 27.595 44.722 27.314 44.613 26.966 44.613" style="stroke: none; stroke-width: 1; stroke-dasharray: none; stroke-linecap: butt; stroke-linejoin: miter; stroke-miterlimit: 10; fill: rgb(25,48,63); fill-rule: nonzero; opacity: 1;" transform=" matrix(1 0 0 1 0 0) " stroke-linecap="round" />
	<path d="M 33.868 46.255 c 0 0.416 0.142 0.768 0.425 1.06 c 0.286 0.292 0.635 0.437 1.042 0.437 c 0.41 0 0.759 -0.145 1.045 -0.437 c 0.284 -0.292 0.425 -0.644 0.425 -1.06 c 0 -0.413 -0.142 -0.768 -0.425 -1.06 c -0.286 -0.292 -0.635 -0.437 -1.045 -0.437 c -0.408 0 -0.756 0.145 -1.042 0.437 C 34.009 45.487 33.868 45.842 33.868 46.255 M 31.31 46.255 c 0 -1.066 0.393 -1.976 1.175 -2.726 c 0.786 -0.747 1.734 -1.122 2.85 -1.122 c 1.119 0 2.07 0.375 2.853 1.122 c 0.786 0.75 1.175 1.66 1.175 2.726 s -0.39 1.976 -1.175 2.726 c -0.783 0.75 -1.734 1.125 -2.853 1.125 c -1.116 0 -2.064 -0.375 -2.85 -1.125 C 31.703 48.231 31.31 47.321 31.31 46.255" style="stroke: none; stroke-width: 1; stroke-dasharray: none; stroke-linecap: butt; stroke-linejoin: miter; stroke-miterlimit: 10; fill: rgb(25,48,63); fill-rule: nonzero; opacity: 1;" transform=" matrix(1 0 0 1 0 0) " stroke-linecap="round" />
	<path d="M 40.411 42.611 h 1.326 c 0.145 0 0.269 0.032 0.372 0.103 c 0.103 0.068 0.186 0.171 0.251 0.307 l 0.204 0.458 c 0.269 -0.319 0.546 -0.564 0.83 -0.732 c 0.286 -0.168 0.564 -0.251 0.839 -0.251 c 0.295 0 0.52 0.065 0.673 0.195 c 0.154 0.13 0.213 0.313 0.18 0.555 l -0.204 1.663 c -0.027 0.192 -0.089 0.334 -0.186 0.431 c -0.094 0.095 -0.224 0.145 -0.39 0.145 c -0.053 0 -0.112 -0.009 -0.171 -0.018 c -0.059 -0.012 -0.148 -0.035 -0.266 -0.065 c -0.13 -0.041 -0.23 -0.068 -0.298 -0.08 c -0.065 -0.012 -0.13 -0.018 -0.192 -0.018 c -0.233 0 -0.422 0.068 -0.561 0.207 c -0.142 0.136 -0.213 0.322 -0.213 0.561 v 3.514 c 0 0.08 -0.035 0.154 -0.106 0.216 c -0.071 0.062 -0.151 0.092 -0.242 0.092 h -1.855 c -0.1 0 -0.18 -0.032 -0.245 -0.097 c -0.065 -0.062 -0.095 -0.142 -0.095 -0.239 v -6.603 c 0 -0.097 0.032 -0.177 0.097 -0.245 C 40.225 42.643 40.311 42.611 40.411 42.611" style="stroke: none; stroke-width: 1; stroke-dasharray: none; stroke-linecap: butt; stroke-linejoin: miter; stroke-miterlimit: 10; fill: rgb(25,48,63); fill-rule: nonzero; opacity: 1;" transform=" matrix(1 0 0 1 0 0) " stroke-linecap="round" />
	<path d="M 48.323 40.714 c 0 0.375 -0.139 0.697 -0.419 0.969 c -0.281 0.272 -0.614 0.405 -1.001 0.405 c -0.39 0 -0.724 -0.133 -1.007 -0.405 c -0.283 -0.272 -0.422 -0.594 -0.422 -0.969 c 0 -0.375 0.139 -0.7 0.422 -0.975 c 0.283 -0.275 0.617 -0.413 1.007 -0.413 c 0.387 0 0.721 0.139 1.001 0.413 C 48.184 40.014 48.323 40.338 48.323 40.714" style="stroke: none; stroke-width: 1; stroke-dasharray: none; stroke-linecap: butt; stroke-linejoin: miter; stroke-miterlimit: 10; fill: rgb(0,115,255); fill-rule: nonzero; opacity: 1;" transform=" matrix(1 0 0 1 0 0) " stroke-linecap="round" />
	<path d="M 55.275 44.601 l -2.885 3.116 h 2.873 c 0.094 0 0.174 0.036 0.239 0.097 c 0.062 0.065 0.094 0.145 0.094 0.239 v 1.503 c 0 0.097 -0.032 0.177 -0.094 0.239 c -0.065 0.065 -0.145 0.097 -0.239 0.097 h -5.971 c -0.095 0 -0.177 -0.036 -0.248 -0.103 c -0.071 -0.068 -0.106 -0.151 -0.106 -0.245 v -1.237 c 0 -0.089 0.012 -0.16 0.035 -0.219 c 0.021 -0.059 0.062 -0.121 0.121 -0.177 l 2.947 -3.127 h -2.637 c -0.097 0 -0.18 -0.032 -0.248 -0.1 c -0.068 -0.071 -0.103 -0.154 -0.103 -0.248 v -1.471 c 0 -0.095 0.035 -0.177 0.106 -0.248 c 0.071 -0.071 0.154 -0.106 0.245 -0.106 h 5.682 c 0.095 0 0.177 0.035 0.245 0.106 c 0.068 0.071 0.103 0.154 0.103 0.248 v 1.231 c 0 0.086 -0.012 0.159 -0.035 0.219 C 55.375 44.474 55.334 44.536 55.275 44.601" style="stroke: none; stroke-width: 1; stroke-dasharray: none; stroke-linecap: butt; stroke-linejoin: miter; stroke-miterlimit: 10; fill: rgb(25,48,63); fill-rule: nonzero; opacity: 1;" transform=" matrix(1 0 0 1 0 0) " stroke-linecap="round" />
	<path d="M 58.55 45.313 h 2.416 c -0.05 -0.284 -0.186 -0.514 -0.408 -0.691 c -0.221 -0.18 -0.478 -0.269 -0.777 -0.269 c -0.292 0 -0.552 0.089 -0.783 0.269 C 58.768 44.799 58.621 45.029 58.55 45.313 M 63.127 48.703 c -0.292 0.425 -0.729 0.765 -1.308 1.019 c -0.579 0.254 -1.211 0.384 -1.899 0.384 c -1.164 0 -2.117 -0.363 -2.862 -1.084 c -0.747 -0.723 -1.119 -1.633 -1.119 -2.732 c 0 -1.14 0.351 -2.073 1.048 -2.797 c 0.7 -0.727 1.618 -1.09 2.752 -1.09 c 1.096 0 1.985 0.348 2.667 1.045 c 0.685 0.694 1.028 1.547 1.028 2.56 v 0.416 c 0 0.159 -0.035 0.286 -0.103 0.384 c -0.068 0.094 -0.165 0.142 -0.295 0.142 h -4.539 c 0.068 0.337 0.233 0.605 0.499 0.8 c 0.263 0.195 0.585 0.295 0.957 0.295 c 0.251 0 0.481 -0.047 0.694 -0.139 c 0.213 -0.092 0.416 -0.233 0.611 -0.431 c 0.089 -0.086 0.177 -0.133 0.272 -0.142 c 0.095 -0.009 0.189 0.018 0.289 0.083 l 1.231 0.806 c 0.086 0.056 0.136 0.127 0.148 0.219 C 63.21 48.535 63.183 48.62 63.127 48.703" style="stroke: none; stroke-width: 1; stroke-dasharray: none; stroke-linecap: butt; stroke-linejoin: miter; stroke-miterlimit: 10; fill: rgb(25,48,63); fill-rule: nonzero; opacity: 1;" transform=" matrix(1 0 0 1 0 0) " stroke-linecap="round" />
	<path d="M 67.236 48.47 c 0 0.449 -0.159 0.833 -0.481 1.152 c -0.322 0.322 -0.709 0.484 -1.161 0.484 c -0.446 0 -0.83 -0.162 -1.149 -0.484 c -0.319 -0.319 -0.478 -0.703 -0.478 -1.152 c 0 -0.452 0.159 -0.836 0.478 -1.155 c 0.319 -0.319 0.703 -0.478 1.149 -0.478 c 0.452 0 0.839 0.159 1.161 0.478 C 67.077 47.634 67.236 48.018 67.236 48.47" style="stroke: none; stroke-width: 1; stroke-dasharray: none; stroke-linecap: butt; stroke-linejoin: miter; stroke-miterlimit: 10; fill: rgb(255,194,0); fill-rule: nonzero; opacity: 1;" transform=" matrix(1 0 0 1 0 0) " stroke-linecap="round" />
	<path d="M 71.738 44.613 c -0.348 0 -0.632 0.109 -0.856 0.325 c -0.221 0.219 -0.334 0.508 -0.334 0.874 v 3.739 c 0 0.1 -0.032 0.183 -0.097 0.248 c -0.062 0.062 -0.145 0.095 -0.245 0.095 h -1.861 c -0.1 0 -0.18 -0.032 -0.245 -0.095 c -0.065 -0.065 -0.097 -0.148 -0.097 -0.248 v -6.597 c 0 -0.1 0.032 -0.183 0.097 -0.248 c 0.065 -0.062 0.145 -0.095 0.245 -0.095 h 1.861 c 0.1 0 0.183 0.032 0.245 0.095 c 0.065 0.065 0.097 0.148 0.097 0.248 v 0.526 c 0.233 -0.351 0.526 -0.617 0.886 -0.8 c 0.357 -0.183 0.768 -0.275 1.231 -0.275 c 0.918 0 1.612 0.275 2.085 0.818 c 0.47 0.546 0.706 1.338 0.706 2.377 v 3.951 c 0 0.1 -0.032 0.183 -0.095 0.248 c -0.065 0.062 -0.148 0.095 -0.248 0.095 h -1.858 c -0.1 0 -0.183 -0.032 -0.248 -0.095 c -0.062 -0.065 -0.095 -0.148 -0.095 -0.248 v -3.739 c 0 -0.366 -0.109 -0.656 -0.328 -0.874 C 72.367 44.722 72.084 44.613 71.738 44.613" style="stroke: none; stroke-width: 1; stroke-dasharray: none; stroke-linecap: butt; stroke-linejoin: miter; stroke-miterlimit: 10; fill: rgb(25,48,63); fill-rule: nonzero; opacity: 1;" transform=" matrix(1 0 0 1 0 0) " stroke-linecap="round" />
	<path d="M 78.701 45.313 h 2.413 c -0.05 -0.284 -0.186 -0.514 -0.405 -0.691 c -0.221 -0.18 -0.481 -0.269 -0.777 -0.269 c -0.292 0 -0.552 0.089 -0.783 0.269 C 78.92 44.799 78.769 45.029 78.701 45.313 M 83.276 48.703 c -0.292 0.425 -0.726 0.765 -1.305 1.019 c -0.579 0.254 -1.214 0.384 -1.902 0.384 c -1.164 0 -2.117 -0.363 -2.862 -1.084 c -0.744 -0.723 -1.116 -1.633 -1.116 -2.732 c 0 -1.14 0.348 -2.073 1.048 -2.797 c 0.7 -0.727 1.615 -1.09 2.752 -1.09 c 1.093 0 1.982 0.348 2.667 1.045 c 0.682 0.694 1.025 1.547 1.025 2.56 v 0.416 c 0 0.159 -0.032 0.286 -0.103 0.384 c -0.068 0.094 -0.165 0.142 -0.292 0.142 h -4.539 c 0.068 0.337 0.233 0.605 0.499 0.8 c 0.263 0.195 0.582 0.295 0.957 0.295 c 0.251 0 0.481 -0.047 0.694 -0.139 c 0.213 -0.092 0.413 -0.233 0.611 -0.431 c 0.086 -0.086 0.177 -0.133 0.269 -0.142 c 0.095 -0.009 0.192 0.018 0.292 0.083 l 1.229 0.806 c 0.089 0.056 0.139 0.127 0.148 0.219 C 83.358 48.535 83.335 48.62 83.276 48.703" style="stroke: none; stroke-width: 1; stroke-dasharray: none; stroke-linecap: butt; stroke-linejoin: miter; stroke-miterlimit: 10; fill: rgb(25,48,63); fill-rule: nonzero; opacity: 1;" transform=" matrix(1 0 0 1 0 0) " stroke-linecap="round" />
	<path d="M 48.178 42.953 v 6.597 c 0 0.097 -0.032 0.177 -0.1 0.242 c -0.065 0.068 -0.148 0.1 -0.248 0.1 h -1.846 c -0.1 0 -0.183 -0.032 -0.251 -0.1 c -0.065 -0.065 -0.097 -0.145 -0.097 -0.242 v -6.597 c 0 -0.097 0.032 -0.177 0.097 -0.242 c 0.068 -0.068 0.151 -0.1 0.251 -0.1 h 1.846 c 0.1 0 0.183 0.032 0.248 0.1 C 48.146 42.776 48.178 42.856 48.178 42.953" style="stroke: none; stroke-width: 1; stroke-dasharray: none; stroke-linecap: butt; stroke-linejoin: miter; stroke-miterlimit: 10; fill: rgb(25,48,63); fill-rule: nonzero; opacity: 1;" transform=" matrix(1 0 0 1 0 0) " stroke-linecap="round" />
	<path d="M 87.483 50.05 c -0.797 0 -1.435 -0.21 -1.911 -0.626 c -0.478 -0.419 -0.715 -0.995 -0.715 -1.734 v -2.962 h -0.753 c -0.092 0 -0.171 -0.033 -0.236 -0.103 c -0.065 -0.068 -0.1 -0.151 -0.1 -0.251 v -0.526 c 0 -0.157 0.015 -0.281 0.047 -0.378 c 0.03 -0.095 0.083 -0.186 0.159 -0.275 l 1.81 -2.008 c 0.157 -0.168 0.283 -0.281 0.387 -0.328 c 0.103 -0.05 0.236 -0.077 0.402 -0.077 h 0.484 c 0.097 0 0.177 0.033 0.242 0.1 c 0.068 0.065 0.1 0.145 0.1 0.242 v 1.497 h 1.601 c 0.094 0 0.177 0.033 0.245 0.1 c 0.068 0.065 0.103 0.145 0.103 0.242 v 1.409 c 0 0.1 -0.035 0.183 -0.103 0.251 c -0.068 0.071 -0.151 0.103 -0.245 0.103 H 87.4 v 2.427 c 0 0.177 0.047 0.319 0.142 0.419 c 0.097 0.103 0.227 0.157 0.393 0.157 c 0.094 0 0.198 -0.021 0.307 -0.059 c 0.109 -0.038 0.233 -0.1 0.375 -0.183 c 0.142 -0.08 0.26 -0.109 0.36 -0.086 c 0.097 0.021 0.189 0.094 0.275 0.219 l 0.644 0.963 c 0.074 0.109 0.106 0.219 0.103 0.328 c -0.006 0.109 -0.047 0.207 -0.13 0.286 c -0.26 0.266 -0.602 0.472 -1.031 0.623 C 88.413 49.973 87.961 50.05 87.483 50.05" style="stroke: none; stroke-width: 1; stroke-dasharray: none; stroke-linecap: butt; stroke-linejoin: miter; stroke-miterlimit: 10; fill: rgb(25,48,63); fill-rule: nonzero; opacity: 1;" transform=" matrix(1 0 0 1 0 0) " stroke-linecap="round" />
</g>
</svg>